<svg xmlns="http://www.w3.org/2000/svg" viewBox="0 0 24 24"><path d="M20.242,9.656C19.755,9.656 18.876,9.835 17.997,10.859C16.931,9.76 15.406,9.07 13.758,9.07H9.031C8.811,9.07 8.589,9.085 8.351,9.116C7.376,7.572 5.604,7.645 4.747,7.927C4.553,7.991 4.407,8.15 4.36,8.348C4.312,8.546 4.371,8.755 4.515,8.898C4.853,9.236 5.12,9.762 5.296,10.432C4.597,11.017 4.047,11.751 3.683,12.586H2.586C2.262,12.586 2,12.848 2,13.172V16.687C2,17.011 2.262,17.273 2.586,17.273H3.683C4.296,18.666 5.44,19.811 6.852,20.381L6.696,21.318C6.667,21.488 6.715,21.661 6.827,21.793C6.938,21.924 7.101,22 7.273,22H9.617C9.904,22 10.148,21.793 10.195,21.51L10.309,20.828H12.48L12.594,21.51C12.641,21.793 12.885,22 13.172,22H15.516C15.688,22 15.851,21.924 15.962,21.793C16.074,21.661 16.122,21.488 16.094,21.318L15.938,20.382C18.159,19.497 19.656,17.342 19.656,14.929C19.656,13.783 19.313,12.72 18.741,11.815C19.219,11.187 19.742,10.828 20.242,10.828C20.577,10.828 20.828,10.982 20.828,11.121C20.828,11.347 20.601,11.488 20.6,11.488C20.318,11.647 20.217,12.004 20.375,12.286C20.533,12.567 20.889,12.669 21.173,12.511C21.48,12.339 22,11.853 22,11.121C22,10.299 21.228,9.656 20.242,9.656ZM7.273,13.758C6.95,13.758 6.688,13.495 6.688,13.172C6.688,12.848 6.95,12.586 7.273,12.586C7.597,12.586 7.859,12.848 7.859,13.172C7.859,13.495 7.597,13.758 7.273,13.758ZM14.344,12.586H9.617C9.293,12.586 9.031,12.324 9.031,12C9.031,11.676 9.293,11.414 9.617,11.414H14.344C14.668,11.414 14.93,11.676 14.93,12C14.93,12.324 14.668,12.586 14.344,12.586Z" fill="#393939"/><path d="M9.031,4.969C9.031,6.584 10.385,7.899 12,7.899C13.615,7.899 14.93,6.584 14.93,4.969C14.93,3.353 13.615,2 12,2C10.385,2 9.031,3.353 9.031,4.969Z" fill="#393939"/></svg>
