<svg xmlns="http://www.w3.org/2000/svg" viewBox="0 0 24 24"><path d="M3,19.778V3.111C3,2.816 3.105,2.534 3.293,2.325C3.48,2.117 3.735,2 4,2H13C13.265,2 13.52,2.117 13.707,2.325C13.895,2.534 14,2.816 14,3.111V12H16C16.53,12 17.039,12.234 17.414,12.651C17.789,13.068 18,13.633 18,14.222V18.667C18,18.961 18.105,19.244 18.293,19.452C18.48,19.661 18.735,19.778 19,19.778C19.265,19.778 19.52,19.661 19.707,19.452C19.895,19.244 20,18.961 20,18.667V10.889H18C17.735,10.889 17.48,10.772 17.293,10.563C17.105,10.355 17,10.072 17,9.778V5.793L15.343,3.952L16.757,2.381L21.707,7.881C21.8,7.984 21.874,8.107 21.924,8.241C21.974,8.376 22,8.521 22,8.667V18.667C22,19.551 21.684,20.399 21.121,21.024C20.559,21.649 19.796,22 19,22C18.204,22 17.441,21.649 16.879,21.024C16.316,20.399 16,19.551 16,18.667V14.222H14V19.778H15V22H2V19.778H3ZM5,4.222V10.889H12V4.222H5Z" fill="#393939"/></svg>
