<svg xmlns="http://www.w3.org/2000/svg" width="24" height="24" viewBox="0 0 24 24">
  <path fill="currentColor" d="M11.421,17.437a1.02,1.02 0,1 0,2.04 0a1.02,1.02 0,1 0,-2.04 0z"/>
  <path fill="currentColor" d="M12.441,2A10.441,10.441 0,1 0,22.881 12.441,10.435 10.435,0 0,0 12.441,2ZM12.441,21.25a8.809,8.809 0,1 1,8.809 -8.809A8.8,8.8 0,0 1,12.441 21.25Z"/>
  <path fill="currentColor" d="M12.441,7.241A3.266,3.266 0,0 0,9.178 10.504a0.816,0.816 0,0 0,1.631 0,1.631 1.631,0 1,1 1.631,1.631 0.816,0.816 0,0 0,-0.816 0.816v2.039a0.816,0.816 0,1 0,1.631 0v-1.327a3.263,3.263 0,0 0,-0.816 -6.422Z"/>
</svg>