<svg width="44" height="44" viewBox="0 0 44 44" fill="none" xmlns="http://www.w3.org/2000/svg">
<g clip-path="url(#clip0_1476_18257)">
<path d="M8.9375 16.5V27.5H20.4344L15.8087 23.0742C17.0809 22.0466 18.5973 21.3334 20.2248 20.9971C21.8522 20.6608 23.5411 20.7117 25.1432 21.1453C26.7453 21.5788 28.2118 22.3819 29.414 23.484C30.6162 24.5861 31.5174 25.9536 32.0387 27.4665L35.0625 26.5022C34.3694 24.4952 33.1673 22.6838 31.5638 21.2299C29.9604 19.776 28.0054 18.7249 25.8736 18.1704C23.7418 17.6159 21.4996 17.5755 19.3475 18.0526C17.1954 18.5297 15.2003 19.5095 13.5406 20.9045L8.9375 16.5Z" fill="white"/>
</g>
<defs>
<clipPath id="clip0_1476_18257">
<rect width="26.125" height="11" fill="white" transform="translate(8.9375 16.5)"/>
</clipPath>
</defs>
</svg>
